<?xml version="1.0" encoding="UTF-8" standalone="no"?>
<!-- Created with Inkscape (http://www.inkscape.org/) -->

<svg
   xmlns:dc="http://purl.org/dc/elements/1.1/"
   xmlns:cc="http://creativecommons.org/ns#"
   xmlns:rdf="http://www.w3.org/1999/02/22-rdf-syntax-ns#"
   xmlns:svg="http://www.w3.org/2000/svg"
   xmlns="http://www.w3.org/2000/svg"
   xmlns:sodipodi="http://sodipodi.sourceforge.net/DTD/sodipodi-0.dtd"
   xmlns:inkscape="http://www.inkscape.org/namespaces/inkscape"
   id="svg2"
   version="1.1"
   inkscape:version="0.48.4 r9939"
   width="200"
   height="200"
   sodipodi:docname="book.svg">
  <metadata
     id="metadata8">
    <rdf:RDF>
      <cc:Work
         rdf:about="">
        <dc:format>image/svg+xml</dc:format>
        <dc:type
           rdf:resource="http://purl.org/dc/dcmitype/StillImage" />
        <dc:title />
      </cc:Work>
    </rdf:RDF>
  </metadata>
  <defs
     id="defs6" />
  <sodipodi:namedview
     pagecolor="#ffffff"
     bordercolor="#666666"
     borderopacity="1"
     objecttolerance="10"
     gridtolerance="10"
     guidetolerance="10"
     inkscape:pageopacity="0"
     inkscape:pageshadow="2"
     inkscape:window-width="1366"
     inkscape:window-height="656"
     id="namedview4"
     showgrid="false"
     inkscape:object-paths="false"
     inkscape:zoom="0.85333333"
     inkscape:cx="173.4375"
     inkscape:cy="103.42187"
     inkscape:window-x="0"
     inkscape:window-y="27"
     inkscape:window-maximized="1"
     inkscape:current-layer="svg2"
     inkscape:snap-page="true"
     inkscape:snap-bbox="false"
     width="500px" />
  <g
     id="g2989"
     transform="matrix(0.6857821,0,0,0.94356119,179.50994,-92.027737)"
     style="fill:#6f6f91">
    <path
       style="fill:#6f6f91;fill-opacity:1"
       d="m -207.36434,249.60442 c -12.61931,-21.07242 -26.15398,-41.59914 -38.10441,-63.06927 3.86065,-12.53994 12.89312,-21.92644 25.04719,-26.43714 16.91023,-10.9638 36.48893,-21.55341 57.33045,-17.90933 7.9281,2.0383 16.22105,15.05021 22.25208,2.02969 14.45387,-14.03018 35.85268,-11.24671 54.269831,-11.74182 9.841274,1.60025 21.033604,-5.71887 28.759306,2.55506 26.595736,18.09317 53.2245861,36.13782 79.767183,54.30898 -4.383814,13.33506 9.671513,14.05806 2.996379,27.36918 -11.593649,4.99839 -14.166095,1.94205 -26.3152598,4.75514 -19.1980452,2.50525 -38.5075272,4.40563 -57.4891432,8.32423 -10.805853,6.29872 -22.774137,11.57638 -35.566179,9.89511 -16.837887,1.52439 -31.777817,10.3313 -47.638847,15.45136 -16.32674,6.53801 -32.20742,14.11207 -48.28798,21.21881 -6.08544,-8.64849 -11.41036,-17.79464 -17.0206,-26.75 z m 35.35624,11.49164 c 24.55683,-13.14932 50.45003,-28.31968 79.328418,-26.73669 4.187567,-4.53466 4.624143,-12.85863 7.128554,-17.84544 -10.249588,-4.32296 -23.153902,-0.21882 -33.990182,1.39715 -22.21648,6.62351 -41.5001,20.05067 -62.47567,29.55078 -5.48648,5.04221 -1.89564,15.01648 -5.14532,21.7904 5.11704,-2.595 10.13143,-5.38505 15.1542,-8.1562 z m -16.1058,-4.19173 c 3.09521,-9.73877 -5.32873,-16.60058 -9.41406,-24.45795 -12.34631,-19.66365 -24.63739,-39.36307 -37.21624,-58.87939 -11.39288,7.38987 -0.39934,19.78172 4.56289,27.76033 13.45006,21.43901 26.74272,42.98411 40.81503,64.02414 0.96802,-2.71395 0.91033,-5.62452 1.25238,-8.44713 z m 11.13299,-14.482 c 24.60891,-12.70813 48.9457,-30.10332 77.82232,-29.88536 7.743071,-0.13426 17.094084,0.37789 6.806977,-6.4095 -20.855637,-19.74997 -40.666447,-40.81895 -63.480187,-58.34194 -16.17573,-9.11 -35.59322,-2.26296 -50.49092,6.22444 -9.02633,4.79401 -17.71335,10.25642 -25.78326,16.53643 4.64235,12.6058 13.83396,22.86248 20.22321,34.5887 8.66778,13.80509 17.25436,27.66615 26.34099,41.20197 2.92759,-1.13852 5.72005,-2.58292 8.56087,-3.91474 z M -60.2736,223.29935 c 12.992114,-12.04914 31.942599,-9.92068 48.316549,-11.44305 10.8918033,-0.37842 21.8068354,-0.25827 32.676337,-1.15013 -0.481024,-8.77303 -0.218104,-22.70533 -13.2563502,-18.25604 -23.4087468,0.67962 -47.5918888,1.17651 -69.8013398,9.26295 -6.688712,2.49436 -24.122661,22.43722 -18.732786,25.34592 10.745599,-4.71596 13.068676,6.18408 20.79759,-3.75965 z m -4.00796,-24.03447 c 22.671713,-10.43328 48.27902,-7.59813 72.3987928,-10.48074 16.3647002,0.65818 -5.9920936,-9.23055 -10.1517449,-13.37927 -20.3051929,-13.95108 -40.5750489,-27.9727 -61.4511759,-41.06406 -13.940118,-2.13622 -28.033716,0.89917 -42.063472,0.53802 -13.60963,0.0361 -29.63041,2.21136 -37.4097,14.89315 1.2018,11.61118 16.74596,16.18408 22.89276,25.82136 13.21727,12.61896 26.413235,25.26377 39.91888,37.5754 4.708546,-5.22224 9.472439,-10.69958 15.86566,-13.90386 z"
       id="path2993"
       inkscape:connector-curvature="0"
       sodipodi:nodetypes="ccccccccccccccccccccccccccccccccccccccccccccccccccccc" />
  </g>
</svg>
