<?xml version="1.0" encoding="UTF-8" standalone="no"?>
<!-- Created with Inkscape (http://www.inkscape.org/) -->

<svg
   xmlns:dc="http://purl.org/dc/elements/1.1/"
   xmlns:cc="http://creativecommons.org/ns#"
   xmlns:rdf="http://www.w3.org/1999/02/22-rdf-syntax-ns#"
   xmlns:svg="http://www.w3.org/2000/svg"
   xmlns="http://www.w3.org/2000/svg"
   xmlns:sodipodi="http://sodipodi.sourceforge.net/DTD/sodipodi-0.dtd"
   xmlns:inkscape="http://www.inkscape.org/namespaces/inkscape"
   id="svg2"
   version="1.1"
   inkscape:version="0.48.4 r9939"
   width="400"
   height="400"
   sodipodi:docname="bookclub.svg">
  <metadata
     id="metadata8">
    <rdf:RDF>
      <cc:Work
         rdf:about="">
        <dc:format>image/svg+xml</dc:format>
        <dc:type
           rdf:resource="http://purl.org/dc/dcmitype/StillImage" />
        <dc:title />
      </cc:Work>
    </rdf:RDF>
  </metadata>
  <defs
     id="defs6" />
  <sodipodi:namedview
     pagecolor="#ffffff"
     bordercolor="#666666"
     borderopacity="1"
     objecttolerance="10"
     gridtolerance="10"
     guidetolerance="10"
     inkscape:pageopacity="0"
     inkscape:pageshadow="2"
     inkscape:window-width="1366"
     inkscape:window-height="656"
     id="namedview4"
     showgrid="false"
     inkscape:zoom="0.4609375"
     inkscape:cx="256"
     inkscape:cy="247.32204"
     inkscape:window-x="0"
     inkscape:window-y="27"
     inkscape:window-maximized="1"
     inkscape:current-layer="svg2" />
  <g
     id="g2987"
     transform="matrix(0.6482705,0,0,0.6482705,-440.38028,79.080247)"
     style="fill:#6f6f91">
    <path
       style="fill:#6f6f91"
       d="m 857.62712,417.35499 c -35.22777,-6.91975 -55.12785,-47.13114 -48.16553,-80.60701 0.94024,-48.12868 13.22653,-104.49467 58.52818,-130.06589 31.88306,-14.93615 59.7865,13.79204 87.47536,24.76727 40.70782,13.74726 87.92427,3.45626 120.31177,-24.43732 35.7271,-15.95486 74.5143,14.18655 85.8054,47.69719 16.0337,39.18664 21.1946,83.83196 12.0316,125.2149 -11.3933,29.37684 -45.5943,43.59349 -75.4677,39.18523 -80.1718,-0.54219 -160.39935,2.31295 -240.51908,-1.75437 z m -78.6738,-200.43027 c -29.41299,-1.67895 -41.0972,-35.44674 -38.31008,-60.66289 3.03253,-21.30595 1.30509,-46.15921 18.84831,-62.114627 23.36829,-20.38838 47.01303,10.244327 71.43047,11.985047 18.71992,2.16947 50.61767,-11.159616 46.97856,21.12 -5.73899,23.24069 31.71958,56.3044 -7.54586,63.89993 -26.82074,5.41776 -44.08465,35.38032 -74.61284,28.0421 -5.63472,-0.43074 -11.2288,-1.27479 -16.78856,-2.26956 z m 200.94278,0.48786 C 913.53644,211.23497 870.06516,127.44819 904.33027,69.874445 931.73255,16.399141 1011.3741,-1.9759534 1057.2082,38.690164 c 46.4993,36.539744 50.8832,116.075426 3.5093,153.841846 -21.7425,19.20948 -51.8858,29.61498 -80.8214,24.88057 z m 174.1997,-5.09253 c -8.2949,-25.8267 -67.0965,-12.55575 -51.1467,-46.47876 5.5736,-25.74205 1.8282,-71.553294 41.2703,-60.90973 31.2036,8.96318 62.5625,-36.016052 87.524,-7.889108 14.6012,21.347468 14.2461,48.918328 14.2817,73.834248 -0.1461,22.34691 -15.9783,47.07698 -40.6586,45.45542 -16.885,2.52016 -36.2986,7.063 -51.2707,-4.01207 z M 825.62712,81.81413 C 773.39825,71.567976 756.54768,-9.0485795 802.43583,-37.747353 837.85482,-64.461588 898.14528,-46.196421 907.54212,-1.2061168 919.1499,40.003795 883.76174,88.292839 839.60541,83.415713 834.91249,83.264171 830.23479,82.713 825.62712,81.81413 z m 302.51218,-0.0215 c -51.2716,-10.249232 -69.1302,-88.5107998 -24.9419,-118.249384 35.268,-28.489319 98.0622,-10.425292 106.8682,35.92805711 10.8045,40.79721089 -23.5328,88.72176089 -67.4376,83.92804289 -4.863,-0.137862 -9.7105,-0.698625 -14.4887,-1.606716 z"
       id="path2989"
       inkscape:connector-curvature="0" />
  </g>
</svg>
